<svg version="1.0" xmlns="http://www.w3.org/2000/svg" width="346.667" height="346.667" viewBox="0 0 260 260"><path d="M141 19c-21.1 1.2-42.5 8.7-62.5 21.7-8 5.1-26.5 23.1-31.3 30.4-6.2 9.4-7.4 11.5-9.7 16.9-2.5 5.9-6 17.3-7.6 24.5-.4 2.2-.8 10.8-.9 19.1 0 12.2.4 16.6 2.1 23 1.1 4.3 2.5 9.6 3 11.6s2.6 7.3 4.7 11.7C49 199.1 69 219 91.2 229.8c15.5 7.6 22.3 9.9 33.6 11.8 7 1.2 10.2 2.1 10.2 3.1s3.7 1.3 18.9 1.3c10.5 0 19.2-.4 19.5-.8 1.1-1.8.8-52.4-.3-53.5-.7-.7-7-1.4-14.9-1.8-17.3-.9-29.5-4.2-38.5-10.5-2.6-1.9-5.1-3.4-5.6-3.4-1.4 0-15.4-14.3-16.7-17.1-.7-1.3-2.5-5.1-4-8.4-2.8-5.7-2.9-6.7-2.8-19.5 0-12.3.3-14 2.6-19.5 3.4-7.7 13-19 20.5-24 3.2-2.1 6.7-4.6 7.8-5.5 2.9-2.3 17.2-6.9 23.6-7.5 3-.3 10.7-.8 17.2-1.1l11.8-.7 5.7-5c3.1-2.8 8.6-7.8 12.2-11.2 12.9-11.9 29.7-26.6 35.3-30.9 3.9-3 4.8-6 2.1-7-2-.8-74.6-.5-88.4.4z"/></svg>