<?xml version="1.0" standalone="no"?>
<!DOCTYPE svg PUBLIC "-//W3C//DTD SVG 20010904//EN"
 "http://www.w3.org/TR/2001/REC-SVG-20010904/DTD/svg10.dtd">
<svg version="1.0" xmlns="http://www.w3.org/2000/svg"
 width="260.000000pt" height="260.000000pt" viewBox="0 0 260.000000 260.000000"
 preserveAspectRatio="xMidYMid meet">
<metadata>
Created by potrace 1.11, written by Peter Selinger 2001-2013
</metadata>
<g transform="translate(0.000000,260.000000) scale(0.100000,-0.100000)"
fill="#000000" stroke="none">
<path d="M1410 2410 c-211 -12 -425 -87 -625 -217 -80 -51 -265 -231 -313
-304 -62 -94 -74 -115 -97 -169 -25 -59 -60 -173 -76 -245 -4 -22 -8 -108 -9
-191 0 -122 4 -166 21 -230 11 -43 25 -96 30 -116 5 -20 26 -73 47 -117 102
-212 302 -411 524 -519 155 -76 223 -99 336 -118 70 -12 102 -21 102 -31 0
-10 37 -13 189 -13 105 0 192 4 195 8 11 18 8 524 -3 535 -7 7 -70 14 -149 18
-173 9 -295 42 -385 105 -26 19 -51 34 -56 34 -14 0 -154 143 -167 171 -7 13
-25 51 -40 84 -28 57 -29 67 -28 195 0 123 3 140 26 195 34 77 130 190 205
240 32 21 67 46 78 55 29 23 172 69 236 75 30 3 107 8 172 11 l118 7 57 50
c31 28 86 78 122 112 129 119 297 266 353 309 39 30 48 60 21 70 -20 8 -746 5
-884 -4z"/>
</g>
</svg>
